<mxfile host="Electron" agent="Mozilla/5.0 (Windows NT 10.0; Win64; x64) AppleWebKit/537.36 (KHTML, like Gecko) draw.io/28.2.7 Chrome/138.0.7204.251 Electron/37.7.1 Safari/537.36" version="28.2.7">
  <diagram name="Página-1" id="IGChGFCFUrZLpPACQ3Ou">
    <mxGraphModel dx="1012" dy="593" grid="1" gridSize="10" guides="1" tooltips="1" connect="1" arrows="1" fold="1" page="1" pageScale="1" pageWidth="827" pageHeight="1169" math="0" shadow="0">
      <root>
        <mxCell id="0" />
        <mxCell id="1" parent="0" />
        <mxCell id="R9gy81BV3Ql_bEwxnrtC-1" value="ifood-case-landing&lt;div&gt;Landing&lt;/div&gt;" style="sketch=0;points=[[0,0,0],[0.25,0,0],[0.5,0,0],[0.75,0,0],[1,0,0],[0,1,0],[0.25,1,0],[0.5,1,0],[0.75,1,0],[1,1,0],[0,0.25,0],[0,0.5,0],[0,0.75,0],[1,0.25,0],[1,0.5,0],[1,0.75,0]];outlineConnect=0;fontColor=#232F3E;fillColor=#7AA116;strokeColor=#ffffff;dashed=0;verticalLabelPosition=bottom;verticalAlign=top;align=center;html=1;fontSize=12;fontStyle=0;aspect=fixed;shape=mxgraph.aws4.resourceIcon;resIcon=mxgraph.aws4.s3;" vertex="1" parent="1">
          <mxGeometry x="220" y="120" width="78" height="78" as="geometry" />
        </mxCell>
        <mxCell id="R9gy81BV3Ql_bEwxnrtC-5" style="edgeStyle=orthogonalEdgeStyle;rounded=0;orthogonalLoop=1;jettySize=auto;html=1;dashed=1;" edge="1" parent="1" target="R9gy81BV3Ql_bEwxnrtC-1">
          <mxGeometry relative="1" as="geometry">
            <mxPoint x="370" y="159" as="sourcePoint" />
          </mxGeometry>
        </mxCell>
        <mxCell id="R9gy81BV3Ql_bEwxnrtC-6" value="ifood-case-bronze" style="sketch=0;points=[[0,0,0],[0.25,0,0],[0.5,0,0],[0.75,0,0],[1,0,0],[0,1,0],[0.25,1,0],[0.5,1,0],[0.75,1,0],[1,1,0],[0,0.25,0],[0,0.5,0],[0,0.75,0],[1,0.25,0],[1,0.5,0],[1,0.75,0]];outlineConnect=0;fontColor=#232F3E;fillColor=#7AA116;strokeColor=#ffffff;dashed=0;verticalLabelPosition=bottom;verticalAlign=top;align=center;html=1;fontSize=12;fontStyle=0;aspect=fixed;shape=mxgraph.aws4.resourceIcon;resIcon=mxgraph.aws4.s3;" vertex="1" parent="1">
          <mxGeometry x="510" y="120" width="78" height="78" as="geometry" />
        </mxCell>
        <mxCell id="R9gy81BV3Ql_bEwxnrtC-26" style="edgeStyle=orthogonalEdgeStyle;rounded=0;orthogonalLoop=1;jettySize=auto;html=1;startArrow=classic;startFill=1;" edge="1" parent="1" source="R9gy81BV3Ql_bEwxnrtC-8" target="R9gy81BV3Ql_bEwxnrtC-6">
          <mxGeometry relative="1" as="geometry" />
        </mxCell>
        <mxCell id="R9gy81BV3Ql_bEwxnrtC-8" value="Catálogo de Dados&lt;div&gt;Camada Bronze&lt;/div&gt;" style="sketch=0;outlineConnect=0;fontColor=#232F3E;gradientColor=none;fillColor=#8C4FFF;strokeColor=none;dashed=0;verticalLabelPosition=bottom;verticalAlign=top;align=center;html=1;fontSize=12;fontStyle=0;aspect=fixed;pointerEvents=1;shape=mxgraph.aws4.glue_data_catalog;" vertex="1" parent="1">
          <mxGeometry x="630" y="120" width="72" height="78" as="geometry" />
        </mxCell>
        <mxCell id="R9gy81BV3Ql_bEwxnrtC-12" style="edgeStyle=orthogonalEdgeStyle;rounded=0;orthogonalLoop=1;jettySize=auto;html=1;entryX=0;entryY=0.5;entryDx=0;entryDy=0;entryPerimeter=0;" edge="1" parent="1" target="R9gy81BV3Ql_bEwxnrtC-6">
          <mxGeometry relative="1" as="geometry">
            <mxPoint x="448" y="159" as="sourcePoint" />
            <Array as="points" />
          </mxGeometry>
        </mxCell>
        <mxCell id="R9gy81BV3Ql_bEwxnrtC-19" style="edgeStyle=orthogonalEdgeStyle;rounded=0;orthogonalLoop=1;jettySize=auto;html=1;dashed=1;" edge="1" parent="1" source="R9gy81BV3Ql_bEwxnrtC-13" target="R9gy81BV3Ql_bEwxnrtC-6">
          <mxGeometry relative="1" as="geometry" />
        </mxCell>
        <mxCell id="R9gy81BV3Ql_bEwxnrtC-13" value="processamento_dados_silver" style="sketch=0;points=[[0,0,0],[0.25,0,0],[0.5,0,0],[0.75,0,0],[1,0,0],[0,1,0],[0.25,1,0],[0.5,1,0],[0.75,1,0],[1,1,0],[0,0.25,0],[0,0.5,0],[0,0.75,0],[1,0.25,0],[1,0.5,0],[1,0.75,0]];outlineConnect=0;fontColor=#232F3E;fillColor=#8C4FFF;strokeColor=#ffffff;dashed=0;verticalLabelPosition=bottom;verticalAlign=top;align=center;html=1;fontSize=12;fontStyle=0;aspect=fixed;shape=mxgraph.aws4.resourceIcon;resIcon=mxgraph.aws4.glue;" vertex="1" parent="1">
          <mxGeometry x="510" y="240" width="78" height="78" as="geometry" />
        </mxCell>
        <mxCell id="R9gy81BV3Ql_bEwxnrtC-15" value="ifood-case-silver" style="sketch=0;points=[[0,0,0],[0.25,0,0],[0.5,0,0],[0.75,0,0],[1,0,0],[0,1,0],[0.25,1,0],[0.5,1,0],[0.75,1,0],[1,1,0],[0,0.25,0],[0,0.5,0],[0,0.75,0],[1,0.25,0],[1,0.5,0],[1,0.75,0]];outlineConnect=0;fontColor=#232F3E;fillColor=#7AA116;strokeColor=#ffffff;dashed=0;verticalLabelPosition=bottom;verticalAlign=top;align=center;html=1;fontSize=12;fontStyle=0;aspect=fixed;shape=mxgraph.aws4.resourceIcon;resIcon=mxgraph.aws4.s3;" vertex="1" parent="1">
          <mxGeometry x="380" y="300" width="78" height="78" as="geometry" />
        </mxCell>
        <mxCell id="R9gy81BV3Ql_bEwxnrtC-16" style="edgeStyle=orthogonalEdgeStyle;rounded=0;orthogonalLoop=1;jettySize=auto;html=1;startArrow=classic;startFill=1;entryX=0;entryY=0.5;entryDx=0;entryDy=0;entryPerimeter=0;" edge="1" parent="1" source="R9gy81BV3Ql_bEwxnrtC-17" target="R9gy81BV3Ql_bEwxnrtC-15">
          <mxGeometry relative="1" as="geometry">
            <mxPoint x="330" y="689" as="targetPoint" />
          </mxGeometry>
        </mxCell>
        <mxCell id="R9gy81BV3Ql_bEwxnrtC-17" value="Catálogo de Dados&lt;div&gt;Camada Silver&lt;/div&gt;" style="sketch=0;outlineConnect=0;fontColor=#232F3E;gradientColor=none;fillColor=#8C4FFF;strokeColor=none;dashed=0;verticalLabelPosition=bottom;verticalAlign=top;align=center;html=1;fontSize=12;fontStyle=0;aspect=fixed;pointerEvents=1;shape=mxgraph.aws4.glue_data_catalog;" vertex="1" parent="1">
          <mxGeometry x="280" y="300" width="72" height="78" as="geometry" />
        </mxCell>
        <mxCell id="R9gy81BV3Ql_bEwxnrtC-18" style="edgeStyle=orthogonalEdgeStyle;rounded=0;orthogonalLoop=1;jettySize=auto;html=1;entryX=0.5;entryY=0;entryDx=0;entryDy=0;entryPerimeter=0;" edge="1" parent="1" source="R9gy81BV3Ql_bEwxnrtC-13" target="R9gy81BV3Ql_bEwxnrtC-15">
          <mxGeometry relative="1" as="geometry" />
        </mxCell>
        <mxCell id="R9gy81BV3Ql_bEwxnrtC-21" style="edgeStyle=orthogonalEdgeStyle;rounded=0;orthogonalLoop=1;jettySize=auto;html=1;dashed=1;" edge="1" parent="1" source="R9gy81BV3Ql_bEwxnrtC-20" target="R9gy81BV3Ql_bEwxnrtC-15">
          <mxGeometry relative="1" as="geometry" />
        </mxCell>
        <mxCell id="R9gy81BV3Ql_bEwxnrtC-20" value="SQL Ingestão Gold" style="sketch=0;points=[[0,0,0],[0.25,0,0],[0.5,0,0],[0.75,0,0],[1,0,0],[0,1,0],[0.25,1,0],[0.5,1,0],[0.75,1,0],[1,1,0],[0,0.25,0],[0,0.5,0],[0,0.75,0],[1,0.25,0],[1,0.5,0],[1,0.75,0]];outlineConnect=0;fontColor=#232F3E;fillColor=#8C4FFF;strokeColor=#ffffff;dashed=0;verticalLabelPosition=bottom;verticalAlign=top;align=center;html=1;fontSize=12;fontStyle=0;aspect=fixed;shape=mxgraph.aws4.resourceIcon;resIcon=mxgraph.aws4.athena;" vertex="1" parent="1">
          <mxGeometry x="380" y="420" width="78" height="78" as="geometry" />
        </mxCell>
        <mxCell id="R9gy81BV3Ql_bEwxnrtC-22" value="ifood-case-gold" style="sketch=0;points=[[0,0,0],[0.25,0,0],[0.5,0,0],[0.75,0,0],[1,0,0],[0,1,0],[0.25,1,0],[0.5,1,0],[0.75,1,0],[1,1,0],[0,0.25,0],[0,0.5,0],[0,0.75,0],[1,0.25,0],[1,0.5,0],[1,0.75,0]];outlineConnect=0;fontColor=#232F3E;fillColor=#7AA116;strokeColor=#ffffff;dashed=0;verticalLabelPosition=bottom;verticalAlign=top;align=center;html=1;fontSize=12;fontStyle=0;aspect=fixed;shape=mxgraph.aws4.resourceIcon;resIcon=mxgraph.aws4.s3;" vertex="1" parent="1">
          <mxGeometry x="520" y="420" width="78" height="78" as="geometry" />
        </mxCell>
        <mxCell id="R9gy81BV3Ql_bEwxnrtC-23" style="edgeStyle=orthogonalEdgeStyle;rounded=0;orthogonalLoop=1;jettySize=auto;html=1;startArrow=classic;startFill=1;" edge="1" parent="1" source="R9gy81BV3Ql_bEwxnrtC-24">
          <mxGeometry relative="1" as="geometry">
            <mxPoint x="598" y="459" as="targetPoint" />
          </mxGeometry>
        </mxCell>
        <mxCell id="R9gy81BV3Ql_bEwxnrtC-24" value="Catálogo de Dados&lt;div&gt;Camada Gold&lt;/div&gt;" style="sketch=0;outlineConnect=0;fontColor=#232F3E;gradientColor=none;fillColor=#8C4FFF;strokeColor=none;dashed=0;verticalLabelPosition=bottom;verticalAlign=top;align=center;html=1;fontSize=12;fontStyle=0;aspect=fixed;pointerEvents=1;shape=mxgraph.aws4.glue_data_catalog;" vertex="1" parent="1">
          <mxGeometry x="628" y="420" width="72" height="78" as="geometry" />
        </mxCell>
        <mxCell id="R9gy81BV3Ql_bEwxnrtC-25" style="edgeStyle=orthogonalEdgeStyle;rounded=0;orthogonalLoop=1;jettySize=auto;html=1;entryX=0;entryY=0.5;entryDx=0;entryDy=0;entryPerimeter=0;exitX=1;exitY=0.5;exitDx=0;exitDy=0;exitPerimeter=0;" edge="1" parent="1" source="R9gy81BV3Ql_bEwxnrtC-20" target="R9gy81BV3Ql_bEwxnrtC-22">
          <mxGeometry relative="1" as="geometry" />
        </mxCell>
        <mxCell id="R9gy81BV3Ql_bEwxnrtC-27" value="processamento_dados_bronze" style="sketch=0;points=[[0,0,0],[0.25,0,0],[0.5,0,0],[0.75,0,0],[1,0,0],[0,1,0],[0.25,1,0],[0.5,1,0],[0.75,1,0],[1,1,0],[0,0.25,0],[0,0.5,0],[0,0.75,0],[1,0.25,0],[1,0.5,0],[1,0.75,0]];outlineConnect=0;fontColor=#232F3E;fillColor=#8C4FFF;strokeColor=#ffffff;dashed=0;verticalLabelPosition=bottom;verticalAlign=top;align=center;html=1;fontSize=12;fontStyle=0;aspect=fixed;shape=mxgraph.aws4.resourceIcon;resIcon=mxgraph.aws4.glue;" vertex="1" parent="1">
          <mxGeometry x="370" y="120" width="78" height="78" as="geometry" />
        </mxCell>
      </root>
    </mxGraphModel>
  </diagram>
</mxfile>
